<?xml version="1.0" encoding="utf-8"?>
<!-- Generator: Adobe Illustrator 17.0.0, SVG Export Plug-In . SVG Version: 6.00 Build 0)  -->
<!DOCTYPE svg PUBLIC "-//W3C//DTD SVG 1.1//EN" "http://www.w3.org/Graphics/SVG/1.1/DTD/svg11.dtd">
<svg version="1.1" id="Layer_1" xmlns="http://www.w3.org/2000/svg" xmlns:xlink="http://www.w3.org/1999/xlink" x="0px" y="0px"
	 width="250px" height="250px" viewBox="0 0 250 250" enable-background="new 0 0 250 250" xml:space="preserve">
<g>
	<path fill="#FFFFFF" d="M234.398,106.265c-6.367-1.009-12.764-1.897-19.172-2.73c0.609-4.128,0.69-6.698,0.699-7.345l0.003-0.433
		c-0.018-10.034-0.06-32.97-0.084-42.028l-0.027-9.788c-1.784-1.881-6.05-4.736-8.067-6.231
		c-15.73-11.655-47.384-19.04-82.581-19.273l-1.72-0.011c-33.987,0-62.622,6.846-80.63,19.278l-8.604,5.939L34.18,54.1
		c-0.028,8.427-0.077,27.961-0.109,41.87l0.001,0.26c0.007,0.644,0.077,3.198,0.675,7.309c-6.398,0.832-12.786,1.719-19.144,2.726
		l-11.985,1.896l16.249,56.29l9.346-1.482c9.204-1.457,18.465-2.679,27.755-3.716c11.133,17.665,28.437,39.126,55.196,61.545
		l12.861,10.775l12.848-10.791c26.702-22.426,43.985-43.875,55.112-61.534c9.305,1.038,18.581,2.262,27.799,3.721l9.348,1.482
		l16.249-56.29L234.398,106.265z"/>
	<g>
		<path fill="#FFFFFF" d="M123.45,38.429c-29.481,0-54.883,5.807-69.268,15.737c-0.028,8.424-0.077,27.949-0.109,41.851
			c0.001,0.13,0.23,13.345,9.559,33.75c8.315,18.188,25.683,45.793,61.378,75.7V38.44C124.49,38.436,123.973,38.429,123.45,38.429z"
			/>
		<path fill="#E0E1E0" d="M186.374,129.647c9.326-20.433,9.552-33.661,9.553-33.754c-0.018-9.979-0.06-33.027-0.084-42.111
			c-10.337-7.659-36.949-15.118-70.833-15.342v167.026C160.723,175.472,178.068,147.848,186.374,129.647z"/>
	</g>
	<g>
		<path fill="#E24048" d="M182.195,75.117c0.155,0,0.072,0.005,0.225,0.012c0.326-1.358,0.534-2.716,0.86-4.074
			c-38.232-9.179-78.152-9.179-116.384,0c0.327,1.361,0.624,2.723,0.951,4.084c0.218-0.013,0.351-0.022,0.572-0.022
			C74.298,75.117,79,79.883,79,85.762C79,87.392,79,92,79,96h6c0-5,0-10.427,0-13.428c0-5.879,4.621-10.645,10.5-10.645
			S106,76.693,106,82.572c0,2.047,0,8.428,0,13.428h8c0-5,0-11.979,0-15.422c0-5.879,5.121-10.645,11-10.645
			c5.879,0,11,4.766,11,10.645C136,82.899,136,91,136,96h8c0-5,0-10.427,0-13.428c0-5.879,4.621-10.645,10.5-10.645
			S165,76.693,165,82.572c0,2.047,0,8.428,0,13.428h7c0-4,0-7.903,0-10.238C172,79.883,176.316,75.117,182.195,75.117z"/>
		<circle fill="#E24048" cx="78.884" cy="58.84" r="6.594"/>
		<circle fill="#E24048" cx="171.196" cy="58.84" r="6.594"/>
		<circle fill="#E24048" cx="139.495" cy="54.653" r="6.594"/>
		<circle fill="#E24048" cx="110.585" cy="54.653" r="6.594"/>
	</g>
	<path fill="#1E4578" d="M233.281,113.321c-8.99-1.424-18.027-2.669-27.094-3.738c1.833-8.14,1.887-13.049,1.884-13.711
		l-0.075-38.79c-0.012-5.413-0.022-8.589-0.022-8.589s-0.622-0.697-0.998-1.072c-11.974-12.444-46.321-21.136-83.525-21.136
		c-35.049,0-64.248,7.608-80.069,20.839c-0.518,0.421-1.317,1.095-1.317,1.095s-0.017,3.467-0.033,8.885l-0.1,38.921
		c-0.002,0.66,0.053,5.515,1.856,13.561c-9.057,1.068-18.085,2.313-27.066,3.735l-3.994,0.632l12.255,42.455l3.115-0.494
		c11.016-1.744,22.113-3.171,33.247-4.319c11.745,19.59,30.586,42.851,60.836,67.263c0,0,0.308,0.244,0.749,0.562l2.189,1.579
		l2.117-1.674c0.248-0.197,0.42-0.32,0.445-0.338l0.204-0.152c30.177-24.405,48.992-47.655,60.732-67.245
		c11.148,1.149,22.259,2.578,33.289,4.324l3.115,0.494l12.255-42.455L233.281,113.321z M49.191,51.614
		c14.891-11.575,41.802-18.185,74.258-18.185c33.785,0,65.792,7.487,77.386,17.988c0.021,6.227,0.067,30.813,0.091,44.475
		c0.001,0.157-0.059,4.839-1.991,12.905c-24.565-2.635-49.314-3.998-73.936-3.998c-24.618,0-49.363,1.363-73.924,3.997
		c-1.918-7.967-2.002-12.594-2.003-12.749C49.105,82.488,49.165,58.142,49.191,51.614z M125.015,211.958
		c-26.953-22.025-44.341-43.123-55.558-61.14c18.485-1.663,37.054-2.531,55.543-2.531c18.495,0,37.069,0.868,55.56,2.532
		C169.348,168.813,151.967,189.891,125.015,211.958z M219.903,148.372c-9.097-1.393-18.247-2.562-27.422-3.555
		c-2.622-0.284-5.244-0.574-7.87-0.825c-19.828-1.893-39.765-2.849-59.611-2.849c-19.838,0-39.769,0.955-59.59,2.847
		c-2.648,0.253-5.29,0.545-7.933,0.831c-9.161,0.992-18.297,2.159-27.38,3.55l-8.262-28.618c7.892-1.202,15.821-2.251,23.769-3.177
		c2.466-0.287,4.934-0.546,7.404-0.807c23.924-2.524,48.019-3.828,71.992-3.828c23.98,0,48.081,1.304,72.011,3.83
		c2.452,0.259,4.903,0.516,7.351,0.801c7.96,0.927,15.9,1.978,23.804,3.181L219.903,148.372z"/>
	<g>
		<path fill="#E0E1E0" d="M21.834,119.754l8.262,28.618c31.322-4.797,63.231-7.229,94.903-7.229s63.581,2.432,94.903,7.229
			l8.262-28.618c-34.054-5.185-68.739-7.812-103.166-7.812S55.888,114.569,21.834,119.754z"/>
		<g>
			<path fill="#1E4578" d="M32.711,139.47c-0.267-1.476-0.498-2.677-0.694-3.606c-0.354-1.694-0.732-3.374-1.141-5.038
				c-0.408-1.665-0.76-3.023-1.063-4.078c0.853-0.107,1.607-0.205,2.264-0.296c0.443-0.061,1.079-0.155,1.906-0.28
				c0.23,1.128,0.46,2.256,0.691,3.384c0.384,1.76,0.77,3.52,1.157,5.28c0.105,0.431,0.211,0.862,0.316,1.292
				c1.05-0.123,1.732-0.204,2.048-0.246c1.598-0.212,2.802-0.389,3.61-0.536c0.173,0.943,0.346,1.886,0.519,2.829
				c-1.587,0.189-3.096,0.381-4.529,0.574C35.858,139.008,34.163,139.25,32.711,139.47z"/>
			<path fill="#1E4578" d="M43.626,138.01c-0.253-1.615-0.478-2.966-0.678-4.053c-0.201-1.087-0.491-2.527-0.869-4.321
				c-0.377-1.796-0.637-2.984-0.783-3.567c-0.072-0.272-0.143-0.544-0.215-0.816c1.48-0.171,3.27-0.381,5.369-0.625
				c1.937-0.225,3.641-0.422,5.118-0.595c0.016,0.103,0.033,0.206,0.049,0.309c0.008,0.076,0.052,0.346,0.13,0.814
				c0.055,0.339,0.11,0.679,0.165,1.018c0.036,0.219,0.078,0.44,0.126,0.662c-1.212,0.082-2.224,0.169-3.039,0.261
				c-0.896,0.101-1.5,0.173-1.813,0.214c-0.313,0.039-0.799,0.111-1.458,0.213c0.132,0.718,0.264,1.435,0.397,2.153
				c0.734-0.066,1.584-0.158,2.555-0.269c0.345-0.039,1.262-0.166,2.747-0.375c0.115,0.801,0.267,1.756,0.457,2.862
				c-1.063,0.105-1.878,0.19-2.446,0.255c-0.845,0.096-1.786,0.229-2.82,0.396c0.144,0.758,0.288,1.515,0.433,2.273
				c0.349-0.041,0.698-0.082,1.047-0.124c0.31-0.036,0.949-0.121,1.916-0.251c0.625-0.087,1.251-0.174,1.877-0.26
				c0.278-0.038,0.742-0.115,1.388-0.23c0.13,0.927,0.276,1.884,0.446,2.871c-1.474,0.149-3.09,0.324-4.844,0.53
				c-1.326,0.158-2.65,0.321-3.975,0.488C44.48,137.897,44.053,137.953,43.626,138.01z"/>
			<path fill="#1E4578" d="M54.224,136.77c0.153-0.475,0.306-0.949,0.46-1.424c0.911-3.196,1.866-6.39,2.865-9.584
				c0.103-0.356,0.207-0.713,0.311-1.069c0.091-0.314,0.215-0.765,0.372-1.352c1.107-0.096,1.914-0.166,2.423-0.215
				c0.883-0.083,1.702-0.168,2.453-0.249c0.697,1.258,1.388,2.518,2.074,3.778c1.371,2.419,2.72,4.843,4.05,7.269
				c0.254,0.441,0.507,0.881,0.759,1.322c-1.049,0.076-1.685,0.126-1.909,0.145c-0.508,0.045-1.254,0.116-2.237,0.218
				c-0.453-1.006-1.058-2.179-1.824-3.522c-1.537,0.142-3.073,0.29-4.61,0.443c-0.311,1.149-0.614,2.411-0.903,3.787
				c-1.126,0.102-1.817,0.169-2.069,0.196C55.981,136.562,55.242,136.646,54.224,136.77z M59.984,129.701
				c0.956-0.094,1.912-0.185,2.868-0.275c-1.128-2.129-1.757-3.301-1.866-3.518c-0.236,0.953-0.438,1.736-0.607,2.349
				C60.246,128.739,60.115,129.22,59.984,129.701z"/>
			<path fill="#1E4578" d="M77.15,127.135c0.849-0.048,1.657-0.098,2.424-0.151c1.313-0.09,2.338-0.161,3.08-0.221
				c0.029,0.863,0.102,2.083,0.222,3.661c0.121,1.577,0.221,2.767,0.306,3.57c-0.679,0.176-1.244,0.31-1.692,0.399
				c-0.45,0.09-0.99,0.181-1.625,0.272c-0.634,0.091-1.204,0.155-1.703,0.192c-0.821,0.059-1.639,0.05-2.453-0.028
				c-0.812-0.077-1.556-0.245-2.231-0.502c-0.676-0.256-1.265-0.63-1.771-1.12c-0.504-0.491-0.933-1.085-1.281-1.784
				c-0.35-0.699-0.588-1.433-0.716-2.201c-0.212-1.269-0.099-2.472,0.351-3.609c0.449-1.139,1.217-2.073,2.306-2.8
				c1.088-0.726,2.582-1.16,4.47-1.295c1.377-0.098,2.926-0.036,4.64,0.188c0.118,0.915,0.291,1.929,0.515,3.045
				c-0.469-0.121-0.845-0.211-1.133-0.271c-0.287-0.061-0.621-0.111-1.001-0.152c-0.381-0.04-0.738-0.065-1.076-0.073
				c-0.339-0.008-0.638-0.004-0.901,0.014c-0.686,0.049-1.321,0.193-1.903,0.435c-0.581,0.242-1.062,0.585-1.438,1.027
				c-0.375,0.442-0.627,0.957-0.757,1.542c-0.127,0.586-0.144,1.194-0.046,1.825c0.101,0.644,0.313,1.208,0.634,1.693
				c0.322,0.483,0.769,0.838,1.339,1.06c0.57,0.223,1.181,0.312,1.832,0.265c0.542-0.039,1.124-0.164,1.748-0.371
				c-0.059-0.681-0.119-1.362-0.178-2.043c-0.403,0.008-0.64,0.016-0.714,0.021c-0.326,0.026-0.651,0.052-0.977,0.078
				c-0.034-0.386-0.068-0.773-0.103-1.159c-0.012-0.125-0.029-0.305-0.05-0.542C77.25,127.863,77.209,127.542,77.15,127.135z"/>
			<path fill="#1E4578" d="M84.446,121.265c0.982-0.046,1.674-0.078,2.077-0.101c0.503-0.028,1.173-0.073,2.007-0.131
				c0.05,1.337,0.102,2.675,0.154,4.012c0.025,0.755,0.062,1.463,0.106,2.123c0.044,0.66,0.079,1.115,0.107,1.366
				c0.051,0.475,0.131,0.873,0.232,1.188c0.103,0.316,0.254,0.58,0.456,0.794c0.201,0.214,0.466,0.368,0.791,0.465
				c0.326,0.096,0.658,0.136,1.002,0.118c0.292-0.015,0.563-0.07,0.81-0.165c0.196-0.076,0.366-0.18,0.513-0.307
				c0.127-0.119,0.24-0.256,0.329-0.41c0.111-0.185,0.201-0.414,0.275-0.69c0.073-0.257,0.115-0.591,0.126-0.996
				c0.016-0.413-0.001-1.351-0.044-2.812c-0.038-1.244-0.082-2.383-0.136-3.417c-0.056-1.002-0.069-1.505-0.038-1.506
				c0.949-0.044,1.7-0.078,2.246-0.102c0.639-0.028,1.277-0.055,1.916-0.081c0.029,2.235,0.061,4.47,0.096,6.704
				c0.005,0.127,0.009,0.231,0.016,0.312c0.084,1.307,0.083,2.231-0.004,2.774c-0.087,0.542-0.265,1.017-0.536,1.426
				c-0.269,0.408-0.684,0.783-1.236,1.127c-0.554,0.343-1.193,0.598-1.92,0.764c-0.726,0.168-1.467,0.271-2.223,0.31
				c-0.678,0.035-1.336,0.018-1.976-0.047c-0.592-0.069-1.133-0.187-1.621-0.351c-0.488-0.163-0.92-0.365-1.297-0.601
				c-0.343-0.219-0.618-0.448-0.815-0.686c-0.201-0.237-0.369-0.525-0.51-0.864c-0.158-0.382-0.262-0.794-0.316-1.24
				c-0.018-0.15-0.04-0.377-0.065-0.682c-0.026-0.306-0.05-0.744-0.076-1.317c-0.021-0.504-0.041-1.007-0.062-1.511
				c-0.016-0.396-0.051-0.978-0.106-1.745C84.631,123.747,84.538,122.506,84.446,121.265z"/>
			<path fill="#1E4578" d="M99.886,133.411c0.025-1.625,0.034-2.985,0.022-4.081c-0.013-1.096-0.052-2.55-0.117-4.364
				c-0.065-1.815-0.119-3.016-0.164-3.608c-0.024-0.276-0.048-0.552-0.071-0.829c1.486-0.044,3.282-0.098,5.391-0.161
				c1.945-0.058,3.66-0.107,5.146-0.153c-0.002,0.104-0.004,0.207-0.006,0.311c-0.002,0.076-0.005,0.348-0.011,0.819
				c-0.003,0.341-0.006,0.683-0.01,1.024c-0.002,0.22,0,0.442,0.01,0.668c-1.206-0.023-2.22-0.023-3.037-0.001
				c-0.899,0.024-1.508,0.044-1.822,0.057c-0.315,0.012-0.807,0.041-1.473,0.086c0.008,0.724,0.016,1.447,0.025,2.171
				c0.733-0.003,1.588-0.021,2.56-0.048c0.348-0.01,1.271-0.057,2.771-0.138c-0.024,0.805-0.036,1.766-0.036,2.88
				c-1.065,0.012-1.882,0.028-2.455,0.044c-0.848,0.024-1.796,0.074-2.845,0.152c0.012,0.764,0.025,1.529,0.038,2.293
				c0.351-0.011,0.702-0.023,1.054-0.033c0.312-0.01,0.954-0.039,1.93-0.085c0.631-0.033,1.261-0.065,1.892-0.097
				c0.28-0.015,0.75-0.05,1.407-0.109c-0.031,0.932-0.047,1.894-0.049,2.888c-1.479,0.021-3.1,0.058-4.863,0.112
				c-1.332,0.044-2.664,0.092-3.996,0.144C100.746,133.372,100.316,133.391,99.886,133.411z"/>
			<path fill="#E24048" d="M114.923,133.003c0.205-3.059,0.289-6.426,0.243-10.098c-1.328,0.054-2.656,0.112-3.983,0.175
				c0.001-0.35,0.002-0.699,0.003-1.048c0.003-0.56-0.004-1.172-0.019-1.84c1.788-0.024,3.871-0.052,6.251-0.08
				c0.777-0.012,1.555-0.023,2.332-0.032c0.755-0.006,1.51-0.011,2.265-0.014c0.41-0.005,0.819-0.01,1.229-0.015
				c-0.017,0.308-0.035,0.616-0.052,0.924c-0.022,0.495-0.037,0.905-0.045,1.23c-0.007,0.323-0.01,0.568-0.01,0.733
				c-1.336-0.065-2.436-0.093-3.303-0.086c-0.219,0.002-0.437,0.003-0.656,0.005c-0.073,1.112-0.127,2.138-0.16,3.08
				c-0.043,1.35-0.072,2.662-0.084,3.932c-0.013,1.272-0.011,2.299,0.003,3.084c-0.993-0.003-1.636-0.001-1.926,0.003
				C116.751,132.959,116.054,132.973,114.923,133.003z"/>
			<path fill="#E24048" d="M131.736,119.835c1.008,0.01,1.977,0.157,2.9,0.44c0.923,0.283,1.724,0.73,2.4,1.335
				c0.675,0.606,1.167,1.3,1.48,2.08c0.313,0.78,0.446,1.673,0.404,2.679c-0.043,1.056-0.271,2.022-0.676,2.898
				c-0.406,0.877-0.966,1.615-1.682,2.219c-0.714,0.604-1.554,1.043-2.52,1.315c-0.965,0.273-1.966,0.405-3,0.396
				c-1.022-0.009-2.002-0.157-2.939-0.44c-0.936-0.284-1.754-0.739-2.448-1.365c-0.696-0.627-1.194-1.323-1.491-2.089
				c-0.297-0.767-0.448-1.618-0.452-2.556c-0.006-1.377,0.302-2.586,0.935-3.627c0.632-1.042,1.576-1.854,2.834-2.435
				C128.739,120.103,130.16,119.82,131.736,119.835z M131.513,122.672c-0.718-0.007-1.372,0.166-1.956,0.518
				c-0.585,0.351-1.037,0.842-1.352,1.473c-0.317,0.631-0.476,1.308-0.481,2.031c-0.004,0.666,0.13,1.276,0.404,1.831
				c0.274,0.555,0.695,0.988,1.26,1.304c0.566,0.315,1.164,0.475,1.799,0.481c0.679,0.006,1.303-0.162,1.878-0.504
				c0.573-0.342,1.019-0.826,1.334-1.454c0.314-0.628,0.486-1.288,0.504-1.979c0.018-0.674-0.101-1.296-0.365-1.869
				c-0.264-0.571-0.664-1.019-1.199-1.34C132.802,122.844,132.194,122.677,131.513,122.672z"/>
			<path fill="#E24048" d="M147.904,125.8c0.848,0.041,1.655,0.076,2.424,0.105c1.311,0.049,2.342,0.086,3.087,0.104
				c-0.154,0.857-0.338,2.071-0.551,3.644c-0.216,1.572-0.364,2.76-0.45,3.562c-0.708,0.103-1.292,0.176-1.754,0.218
				c-0.463,0.042-1.015,0.075-1.661,0.099c-0.645,0.023-1.218,0.028-1.72,0.011c-0.824-0.028-1.626-0.124-2.411-0.285
				c-0.785-0.162-1.484-0.405-2.095-0.731c-0.612-0.324-1.115-0.756-1.509-1.294c-0.394-0.538-0.692-1.17-0.886-1.898
				c-0.197-0.728-0.279-1.479-0.245-2.252c0.057-1.277,0.423-2.455,1.104-3.533c0.682-1.079,1.636-1.922,2.862-2.527
				c1.226-0.604,2.79-0.877,4.678-0.812c1.38,0.048,2.897,0.272,4.542,0.673c-0.074,0.916-0.121,1.939-0.132,3.065
				c-0.435-0.169-0.792-0.297-1.062-0.387c-0.273-0.091-0.589-0.175-0.956-0.256c-0.367-0.08-0.717-0.142-1.048-0.185
				c-0.332-0.044-0.629-0.071-0.892-0.081c-0.687-0.025-1.343,0.053-1.968,0.231c-0.625,0.178-1.17,0.467-1.633,0.865
				c-0.464,0.398-0.821,0.88-1.07,1.446c-0.25,0.565-0.392,1.166-0.429,1.8c-0.036,0.647,0.053,1.227,0.269,1.74
				c0.216,0.512,0.583,0.909,1.097,1.188c0.516,0.28,1.1,0.433,1.753,0.454c0.544,0.019,1.143-0.044,1.803-0.184
				c0.084-0.68,0.168-1.36,0.252-2.039c-0.399-0.034-0.635-0.051-0.709-0.054c-0.327-0.009-0.653-0.017-0.98-0.025
				c0.048-0.386,0.096-0.771,0.144-1.157c0.014-0.125,0.037-0.305,0.063-0.541C147.846,126.531,147.877,126.209,147.904,125.8z"/>
			<path fill="#E24048" d="M154.606,133.584c0.297-1.611,0.533-2.962,0.703-4.051c0.171-1.089,0.374-2.537,0.61-4.343
				c0.238-1.808,0.385-3.005,0.439-3.596c0.022-0.276,0.044-0.553,0.066-0.829c1.483,0.081,3.278,0.175,5.386,0.288
				c1.944,0.105,3.658,0.198,5.143,0.276c-0.019,0.103-0.038,0.205-0.057,0.308c-0.016,0.075-0.065,0.344-0.147,0.813
				c-0.061,0.339-0.121,0.677-0.182,1.016c-0.039,0.219-0.072,0.44-0.1,0.664c-1.198-0.123-2.206-0.208-3.023-0.254
				c-0.899-0.051-1.506-0.082-1.821-0.095c-0.315-0.014-0.808-0.027-1.478-0.037c-0.113,0.719-0.226,1.439-0.338,2.158
				c0.731,0.058,1.582,0.111,2.555,0.165c0.347,0.019,1.274,0.049,2.779,0.094c-0.157,0.797-0.33,1.75-0.518,2.857
				c-1.061-0.076-1.877-0.128-2.448-0.161c-0.848-0.047-1.8-0.075-2.854-0.086c-0.115,0.76-0.23,1.52-0.344,2.281
				c0.351,0.018,0.701,0.036,1.052,0.055c0.31,0.016,0.955,0.041,1.933,0.076c0.633,0.02,1.266,0.04,1.9,0.061
				c0.28,0.009,0.754,0.013,1.418,0.009c-0.186,0.923-0.364,1.876-0.532,2.864c-1.476-0.102-3.092-0.2-4.855-0.294
				c-1.332-0.067-2.664-0.13-3.996-0.19C155.467,133.618,155.037,133.601,154.606,133.584z"/>
			<path fill="#E24048" d="M169.631,134.432c0.714-3.021,1.361-6.358,1.925-10.008c-1.331-0.057-2.662-0.11-3.993-0.158
				c0.059-0.347,0.119-0.694,0.178-1.041c0.095-0.556,0.191-1.164,0.287-1.829c1.784,0.126,3.862,0.27,6.238,0.442
				c0.776,0.053,1.553,0.107,2.329,0.162c0.754,0.057,1.508,0.115,2.262,0.175c0.408,0.029,0.817,0.058,1.226,0.088
				c-0.069,0.304-0.137,0.609-0.206,0.913c-0.104,0.49-0.187,0.897-0.249,1.218c-0.061,0.32-0.106,0.563-0.132,0.727
				c-1.32-0.177-2.413-0.295-3.28-0.361c-0.218-0.016-0.435-0.033-0.653-0.049c-0.261,1.097-0.486,2.113-0.675,3.045
				c-0.268,1.337-0.514,2.638-0.74,3.897c-0.225,1.261-0.395,2.283-0.511,3.063c-0.989-0.086-1.629-0.138-1.919-0.158
				C171.458,134.54,170.763,134.495,169.631,134.432z"/>
			<path fill="#E24048" d="M178.699,135.111c0.398-1.695,0.797-3.39,1.198-5.085c0.261-1.238,0.521-2.477,0.783-3.715
				c0.107-0.552,0.215-1.103,0.322-1.655c0.092-0.479,0.175-0.941,0.249-1.386c0.047-0.3,0.094-0.6,0.141-0.9
				c0.985,0.095,1.723,0.165,2.212,0.207c0.383,0.033,1.053,0.084,2.002,0.155c-0.468,1.778-0.846,3.351-1.132,4.719
				c1.685,0.149,3.369,0.305,5.053,0.467c0.13-0.508,0.293-1.197,0.488-2.065c0.196-0.868,0.326-1.462,0.388-1.78
				c0.033-0.168,0.084-0.462,0.152-0.882c0.741,0.078,1.483,0.157,2.224,0.238c0.231,0.023,0.89,0.081,1.978,0.18
				c-0.884,3.176-1.514,5.54-1.895,7.094c-0.382,1.552-0.794,3.417-1.24,5.596c-0.656-0.073-1.314-0.145-1.971-0.216
				c-0.297-0.029-1.004-0.093-2.125-0.188c0.436-1.468,0.871-3.185,1.307-5.148c-1.671-0.16-3.342-0.314-5.013-0.462
				c-0.359,1.724-0.717,3.447-1.074,5.171c-0.7-0.068-1.4-0.135-2.101-0.2C180.379,135.232,179.731,135.183,178.699,135.111z"/>
			<path fill="#E24048" d="M193.838,136.527c0.49-1.588,0.888-2.919,1.188-3.994c0.3-1.075,0.678-2.505,1.133-4.291
				c0.456-1.787,0.745-2.971,0.87-3.557c0.055-0.274,0.112-0.548,0.167-0.822c1.477,0.17,3.265,0.372,5.363,0.611
				c1.937,0.222,3.643,0.417,5.126,0.585c-0.032,0.101-0.063,0.202-0.095,0.303c-0.024,0.074-0.105,0.339-0.245,0.801
				c-0.101,0.334-0.202,0.668-0.303,1.002c-0.066,0.215-0.126,0.434-0.181,0.655c-1.187-0.194-2.186-0.339-3-0.435
				c-0.895-0.105-1.501-0.172-1.815-0.204c-0.315-0.033-0.807-0.074-1.479-0.126c-0.199,0.71-0.398,1.42-0.596,2.13
				c0.724,0.101,1.573,0.206,2.541,0.318c0.348,0.041,1.27,0.126,2.776,0.261c-0.255,0.786-0.541,1.723-0.86,2.815
				c-1.056-0.139-1.867-0.242-2.437-0.308c-0.843-0.098-1.794-0.183-2.851-0.257c-0.206,0.751-0.412,1.501-0.618,2.252
				c0.35,0.039,0.7,0.078,1.049,0.118c0.31,0.035,0.952,0.098,1.929,0.192c0.632,0.057,1.264,0.116,1.897,0.175
				c0.28,0.027,0.754,0.057,1.422,0.094c-0.297,0.909-0.589,1.849-0.875,2.822c-1.467-0.191-3.08-0.386-4.834-0.585
				c-1.328-0.147-2.655-0.29-3.983-0.429C194.696,136.612,194.267,136.569,193.838,136.527z"/>
			<path fill="#E24048" d="M206.038,137.926c0.388-1.075,0.725-2.045,1.012-2.91c0.286-0.865,0.601-1.869,0.939-3.016
				c0.339-1.144,0.684-2.355,1.031-3.63c0.347-1.275,0.616-2.291,0.807-3.047c0.777,0.117,1.409,0.207,1.89,0.268
				c0.501,0.063,1.114,0.129,1.84,0.194c0.727,0.066,1.431,0.146,2.113,0.238c0.801,0.107,1.506,0.235,2.114,0.382
				c0.457,0.108,0.858,0.255,1.204,0.445c0.347,0.189,0.622,0.399,0.83,0.63c0.206,0.232,0.361,0.479,0.467,0.744
				c0.106,0.267,0.16,0.567,0.164,0.905c0.003,0.337-0.05,0.69-0.156,1.06c-0.118,0.413-0.281,0.792-0.49,1.139
				c-0.21,0.345-0.472,0.661-0.786,0.946c-0.315,0.287-0.676,0.52-1.081,0.704c-0.406,0.184-0.949,0.354-1.629,0.509
				c0.05,0.414,0.1,0.827,0.149,1.241c0.042,0.347,0.093,0.699,0.148,1.059c0.153,0.96,0.303,1.92,0.449,2.88
				c0.021,0.125,0.05,0.37,0.091,0.734c-0.987-0.153-1.653-0.251-1.997-0.298c-0.433-0.06-1.146-0.152-2.133-0.273
				c-0.009-0.333-0.021-0.953-0.04-1.858c-0.003-0.379-0.016-0.672-0.035-0.879c-0.028-0.459-0.079-1.101-0.152-1.931
				c-0.08-0.916-0.163-1.832-0.249-2.749c0.317,0.106,0.634,0.179,0.954,0.222c0.449,0.06,0.875,0.047,1.276-0.039
				c0.404-0.088,0.738-0.26,1.005-0.518c0.265-0.258,0.443-0.544,0.53-0.86c0.073-0.265,0.066-0.507-0.022-0.728
				c-0.086-0.219-0.27-0.401-0.55-0.54c-0.28-0.14-0.738-0.254-1.379-0.338c-0.219-0.029-0.444-0.054-0.68-0.076
				c-0.233-0.023-0.509-0.05-0.82-0.085c-0.415,1.258-0.892,2.793-1.433,4.61c-0.54,1.816-1.05,3.601-1.529,5.354
				c-1.004-0.143-1.656-0.233-1.957-0.271C207.583,138.101,206.951,138.027,206.038,137.926z"/>
		</g>
	</g>
	<g>
		<polygon fill="#1E4578" points="152.117,163.616 153.247,157.029 147.332,160.139 141.417,157.029 142.546,163.616 
			137.762,168.281 144.375,169.242 147.332,175.234 150.29,169.242 156.902,168.281 		"/>
		<polygon fill="#E24048" points="134.72,157.029 125,162.139 115.281,157.029 117.136,167.852 109.275,175.518 120.141,177.097 
			125,186.944 129.86,177.097 140.725,175.518 132.863,167.852 		"/>
		<polygon fill="#1E4578" points="107.454,163.616 108.583,157.029 102.668,160.139 96.753,157.029 97.883,163.616 93.098,168.281 
			99.711,169.242 102.668,175.234 105.626,169.242 112.238,168.281 		"/>
	</g>
</g>
</svg>
